<?xml version="1.0" encoding="UTF-8" standalone="no"?>
<svg
   xmlns:dc="http://purl.org/dc/elements/1.1/"
   xmlns:cc="http://creativecommons.org/ns#"
   xmlns:rdf="http://www.w3.org/1999/02/22-rdf-syntax-ns#"
   xmlns:svg="http://www.w3.org/2000/svg"
   xmlns="http://www.w3.org/2000/svg"
   xmlns:sodipodi="http://sodipodi.sourceforge.net/DTD/sodipodi-0.dtd"
   xmlns:inkscape="http://www.inkscape.org/namespaces/inkscape"
   width="200mm"
   height="200mm"
   viewBox="0 0 200 200"
   version="1.1"
   id="svg8"
   inkscape:version="1.0.1 (3bc2e813f5, 2020-09-07)"
   sodipodi:docname="trashcan.svg">
  <defs
     id="defs2" />
  <sodipodi:namedview
     id="base"
     pagecolor="#ffffff"
     bordercolor="#666666"
     borderopacity="1.0"
     inkscape:pageopacity="0.0"
     inkscape:pageshadow="2"
     inkscape:zoom="0.98994949"
     inkscape:cx="560.65248"
     inkscape:cy="432.20519"
     inkscape:document-units="mm"
     inkscape:current-layer="layer1"
     inkscape:document-rotation="0"
     showgrid="false"
     inkscape:window-width="2736"
     inkscape:window-height="1714"
     inkscape:window-x="-12"
     inkscape:window-y="-12"
     inkscape:window-maximized="1" />
  <metadata
     id="metadata5">
    <rdf:RDF>
      <cc:Work
         rdf:about="">
        <dc:format>image/svg+xml</dc:format>
        <dc:type
           rdf:resource="http://purl.org/dc/dcmitype/StillImage" />
        <dc:title></dc:title>
      </cc:Work>
    </rdf:RDF>
  </metadata>
  <g
     inkscape:label="Layer 1"
     inkscape:groupmode="layer"
     id="layer1">
    <path
       id="rect833"
       style="fill:#000000;fill-opacity:1;stroke-width:2.52401"
       d="M 40.137429,49.673657 V 183.58404 c 0,7.36969 5.933562,13.30256 13.303251,13.30256 h 93.11864 c 7.36969,0 13.30257,-5.93287 13.30257,-13.30256 V 49.673657 Z m 23.94544,12.656374 h 1.33019 c 5.15878,0 9.312,4.153218 9.312,9.312001 V 172.7425 c 0,5.15878 -4.15322,9.31131 -9.312,9.31131 h -1.33019 c -5.158784,0 -9.312,-4.15253 -9.312,-9.31131 V 71.642032 c 0,-5.158783 4.153216,-9.312001 9.312,-9.312001 z m 35.251693,0 h 1.330188 c 5.15878,0 9.312,4.153218 9.312,9.312001 V 172.7425 c 0,5.15878 -4.15322,9.31131 -9.312,9.31131 h -1.330188 c -5.158783,0 -9.312001,-4.15253 -9.312001,-9.31131 V 71.642032 c 0,-5.158783 4.153218,-9.312001 9.312001,-9.312001 z m 35.252378,0 h 1.33019 c 5.15878,0 9.312,4.153218 9.312,9.312001 V 172.7425 c 0,5.15878 -4.15322,9.31131 -9.312,9.31131 h -1.33019 c -5.15878,0 -9.312,-4.15253 -9.312,-9.31131 V 71.642032 c 0,-5.158783 4.15322,-9.312001 9.312,-9.312001 z" />
    <path
       id="path1001"
       style="color:#000000;font-style:normal;font-variant:normal;font-weight:normal;font-stretch:normal;font-size:medium;line-height:normal;font-family:sans-serif;font-variant-ligatures:normal;font-variant-position:normal;font-variant-caps:normal;font-variant-numeric:normal;font-variant-alternates:normal;font-variant-east-asian:normal;font-feature-settings:normal;font-variation-settings:normal;text-indent:0;text-align:start;text-decoration:none;text-decoration-line:none;text-decoration-style:solid;text-decoration-color:#000000;letter-spacing:normal;word-spacing:normal;text-transform:none;writing-mode:lr-tb;direction:ltr;text-orientation:mixed;dominant-baseline:auto;baseline-shift:baseline;text-anchor:start;white-space:normal;shape-padding:0;shape-margin:0;inline-size:0;clip-rule:nonzero;display:inline;overflow:visible;visibility:visible;isolation:auto;mix-blend-mode:normal;color-interpolation:sRGB;color-interpolation-filters:linearRGB;solid-color:#000000;solid-opacity:1;vector-effect:none;fill:#000000;fill-opacity:1;fill-rule:nonzero;stroke:none;stroke-width:6.65133;stroke-linecap:butt;stroke-linejoin:miter;stroke-miterlimit:4;stroke-dasharray:none;stroke-dashoffset:0;stroke-opacity:1;color-rendering:auto;image-rendering:auto;shape-rendering:auto;text-rendering:auto;enable-background:accumulate;stop-color:#000000"
       d="m 33.486489,23.067839 c -5.58479,0 -9.976751,4.39196 -9.976751,9.976751 0,5.584794 4.391961,9.97744 9.976751,9.97744 H 166.51351 c 5.58479,0 9.97675,-4.392646 9.97675,-9.97744 0,-5.584791 -4.39196,-9.976751 -9.97675,-9.976751 z" />
    <rect
       style="fill:#000000;fill-opacity:1;stroke:none;stroke-width:6.65133;stroke-miterlimit:4;stroke-dasharray:none;stroke-opacity:1"
       id="rect967"
       width="33.256721"
       height="13.30269"
       x="83.371506"
       y="3.1134062"
       ry="6.6513448" />
  </g>
</svg>
